<mxfile host="app.diagrams.net" modified="2023-07-26T19:53:51.318Z" agent="Mozilla/5.0 (Windows NT 10.0; Win64; x64) AppleWebKit/537.36 (KHTML, like Gecko) Chrome/115.0.0.0 Safari/537.36 Edg/115.0.1901.183" etag="TavcvtHSLIOLB_POD4JH" version="21.6.5" type="device">
  <diagram id="prtHgNgQTEPvFCAcTncT" name="Page-1">
    <mxGraphModel dx="1434" dy="796" grid="1" gridSize="10" guides="1" tooltips="1" connect="1" arrows="1" fold="1" page="1" pageScale="1" pageWidth="827" pageHeight="1169" math="0" shadow="0">
      <root>
        <mxCell id="0" />
        <mxCell id="1" parent="0" />
        <mxCell id="syywtueAKrJVC5J-nMk5-54" style="edgeStyle=orthogonalEdgeStyle;rounded=0;orthogonalLoop=1;jettySize=auto;html=1;exitX=0.5;exitY=1;exitDx=0;exitDy=0;entryX=0.5;entryY=0;entryDx=0;entryDy=0;" parent="1" source="syywtueAKrJVC5J-nMk5-12" edge="1" target="ALNtkt206JN49C4pUcW7-76">
          <mxGeometry relative="1" as="geometry">
            <mxPoint x="117" y="160" as="targetPoint" />
          </mxGeometry>
        </mxCell>
        <mxCell id="syywtueAKrJVC5J-nMk5-91" style="edgeStyle=orthogonalEdgeStyle;rounded=0;orthogonalLoop=1;jettySize=auto;html=1;exitX=0.5;exitY=1;exitDx=0;exitDy=0;entryX=0.5;entryY=0;entryDx=0;entryDy=0;" parent="1" source="syywtueAKrJVC5J-nMk5-12" edge="1" target="ALNtkt206JN49C4pUcW7-67">
          <mxGeometry relative="1" as="geometry">
            <mxPoint x="317" y="160" as="targetPoint" />
            <Array as="points">
              <mxPoint x="414" y="140" />
              <mxPoint x="414" y="140" />
            </Array>
          </mxGeometry>
        </mxCell>
        <mxCell id="syywtueAKrJVC5J-nMk5-93" style="edgeStyle=orthogonalEdgeStyle;rounded=0;orthogonalLoop=1;jettySize=auto;html=1;exitX=0.5;exitY=1;exitDx=0;exitDy=0;entryX=0.5;entryY=0;entryDx=0;entryDy=0;" parent="1" source="syywtueAKrJVC5J-nMk5-12" target="syywtueAKrJVC5J-nMk5-84" edge="1">
          <mxGeometry relative="1" as="geometry" />
        </mxCell>
        <mxCell id="syywtueAKrJVC5J-nMk5-12" value="Reactor Core" style="swimlane;" parent="1" vertex="1">
          <mxGeometry x="337" y="30" width="154" height="50" as="geometry" />
        </mxCell>
        <mxCell id="syywtueAKrJVC5J-nMk5-82" style="edgeStyle=orthogonalEdgeStyle;rounded=0;orthogonalLoop=1;jettySize=auto;html=1;exitX=0.5;exitY=1;exitDx=0;exitDy=0;entryX=0.5;entryY=0;entryDx=0;entryDy=0;" parent="1" source="syywtueAKrJVC5J-nMk5-84" target="syywtueAKrJVC5J-nMk5-87" edge="1">
          <mxGeometry relative="1" as="geometry" />
        </mxCell>
        <mxCell id="syywtueAKrJVC5J-nMk5-83" style="edgeStyle=orthogonalEdgeStyle;rounded=0;orthogonalLoop=1;jettySize=auto;html=1;exitX=0.5;exitY=1;exitDx=0;exitDy=0;entryX=0.5;entryY=0;entryDx=0;entryDy=0;" parent="1" source="syywtueAKrJVC5J-nMk5-84" target="syywtueAKrJVC5J-nMk5-88" edge="1">
          <mxGeometry relative="1" as="geometry" />
        </mxCell>
        <mxCell id="syywtueAKrJVC5J-nMk5-84" value="Fuel Assembly #" style="swimlane;" parent="1" vertex="1">
          <mxGeometry x="520" y="160" width="154" height="50" as="geometry" />
        </mxCell>
        <mxCell id="syywtueAKrJVC5J-nMk5-85" style="edgeStyle=orthogonalEdgeStyle;rounded=0;orthogonalLoop=1;jettySize=auto;html=1;exitX=0.5;exitY=1;exitDx=0;exitDy=0;entryX=0.5;entryY=0;entryDx=0;entryDy=0;" parent="1" source="syywtueAKrJVC5J-nMk5-87" target="syywtueAKrJVC5J-nMk5-89" edge="1">
          <mxGeometry relative="1" as="geometry" />
        </mxCell>
        <mxCell id="syywtueAKrJVC5J-nMk5-86" style="edgeStyle=orthogonalEdgeStyle;rounded=0;orthogonalLoop=1;jettySize=auto;html=1;exitX=0.5;exitY=1;exitDx=0;exitDy=0;entryX=0.5;entryY=0;entryDx=0;entryDy=0;" parent="1" source="syywtueAKrJVC5J-nMk5-87" target="syywtueAKrJVC5J-nMk5-90" edge="1">
          <mxGeometry relative="1" as="geometry" />
        </mxCell>
        <mxCell id="syywtueAKrJVC5J-nMk5-87" value="Plate #1" style="swimlane;" parent="1" vertex="1">
          <mxGeometry x="520" y="280" width="70" height="50" as="geometry" />
        </mxCell>
        <mxCell id="syywtueAKrJVC5J-nMk5-88" value="Plate #21" style="swimlane;" parent="1" vertex="1">
          <mxGeometry x="604" y="280" width="70" height="50" as="geometry" />
        </mxCell>
        <mxCell id="syywtueAKrJVC5J-nMk5-89" value="Section #1" style="swimlane;" parent="1" vertex="1">
          <mxGeometry x="520" y="400" width="70" height="50" as="geometry" />
        </mxCell>
        <mxCell id="syywtueAKrJVC5J-nMk5-90" value="Section #30" style="swimlane;" parent="1" vertex="1">
          <mxGeometry x="604" y="400" width="70" height="50" as="geometry" />
        </mxCell>
        <mxCell id="ALNtkt206JN49C4pUcW7-65" style="edgeStyle=orthogonalEdgeStyle;rounded=0;orthogonalLoop=1;jettySize=auto;html=1;exitX=0.5;exitY=1;exitDx=0;exitDy=0;entryX=0.5;entryY=0;entryDx=0;entryDy=0;" parent="1" source="ALNtkt206JN49C4pUcW7-67" target="ALNtkt206JN49C4pUcW7-70" edge="1">
          <mxGeometry relative="1" as="geometry" />
        </mxCell>
        <mxCell id="ALNtkt206JN49C4pUcW7-66" style="edgeStyle=orthogonalEdgeStyle;rounded=0;orthogonalLoop=1;jettySize=auto;html=1;exitX=0.5;exitY=1;exitDx=0;exitDy=0;entryX=0.5;entryY=0;entryDx=0;entryDy=0;" parent="1" source="ALNtkt206JN49C4pUcW7-67" target="ALNtkt206JN49C4pUcW7-71" edge="1">
          <mxGeometry relative="1" as="geometry" />
        </mxCell>
        <mxCell id="ALNtkt206JN49C4pUcW7-67" value="Fuel Assembly #" style="swimlane;" parent="1" vertex="1">
          <mxGeometry x="337" y="160" width="154" height="50" as="geometry" />
        </mxCell>
        <mxCell id="ALNtkt206JN49C4pUcW7-68" style="edgeStyle=orthogonalEdgeStyle;rounded=0;orthogonalLoop=1;jettySize=auto;html=1;exitX=0.5;exitY=1;exitDx=0;exitDy=0;entryX=0.5;entryY=0;entryDx=0;entryDy=0;" parent="1" source="ALNtkt206JN49C4pUcW7-70" target="ALNtkt206JN49C4pUcW7-72" edge="1">
          <mxGeometry relative="1" as="geometry" />
        </mxCell>
        <mxCell id="ALNtkt206JN49C4pUcW7-69" style="edgeStyle=orthogonalEdgeStyle;rounded=0;orthogonalLoop=1;jettySize=auto;html=1;exitX=0.5;exitY=1;exitDx=0;exitDy=0;entryX=0.5;entryY=0;entryDx=0;entryDy=0;" parent="1" source="ALNtkt206JN49C4pUcW7-70" target="ALNtkt206JN49C4pUcW7-73" edge="1">
          <mxGeometry relative="1" as="geometry" />
        </mxCell>
        <mxCell id="ALNtkt206JN49C4pUcW7-70" value="Plate #1" style="swimlane;" parent="1" vertex="1">
          <mxGeometry x="337" y="280" width="70" height="50" as="geometry" />
        </mxCell>
        <mxCell id="ALNtkt206JN49C4pUcW7-71" value="Plate #21" style="swimlane;" parent="1" vertex="1">
          <mxGeometry x="421" y="280" width="70" height="50" as="geometry" />
        </mxCell>
        <mxCell id="ALNtkt206JN49C4pUcW7-72" value="Section #1" style="swimlane;" parent="1" vertex="1">
          <mxGeometry x="337" y="400" width="70" height="50" as="geometry" />
        </mxCell>
        <mxCell id="ALNtkt206JN49C4pUcW7-73" value="Section #30" style="swimlane;" parent="1" vertex="1">
          <mxGeometry x="421" y="400" width="70" height="50" as="geometry" />
        </mxCell>
        <mxCell id="ALNtkt206JN49C4pUcW7-74" style="edgeStyle=orthogonalEdgeStyle;rounded=0;orthogonalLoop=1;jettySize=auto;html=1;exitX=0.5;exitY=1;exitDx=0;exitDy=0;entryX=0.5;entryY=0;entryDx=0;entryDy=0;" parent="1" source="ALNtkt206JN49C4pUcW7-76" target="ALNtkt206JN49C4pUcW7-79" edge="1">
          <mxGeometry relative="1" as="geometry" />
        </mxCell>
        <mxCell id="ALNtkt206JN49C4pUcW7-75" style="edgeStyle=orthogonalEdgeStyle;rounded=0;orthogonalLoop=1;jettySize=auto;html=1;exitX=0.5;exitY=1;exitDx=0;exitDy=0;entryX=0.5;entryY=0;entryDx=0;entryDy=0;" parent="1" source="ALNtkt206JN49C4pUcW7-76" target="ALNtkt206JN49C4pUcW7-80" edge="1">
          <mxGeometry relative="1" as="geometry" />
        </mxCell>
        <mxCell id="ALNtkt206JN49C4pUcW7-76" value="Fuel Assembly #" style="swimlane;" parent="1" vertex="1">
          <mxGeometry x="150" y="160" width="154" height="50" as="geometry" />
        </mxCell>
        <mxCell id="ALNtkt206JN49C4pUcW7-77" style="edgeStyle=orthogonalEdgeStyle;rounded=0;orthogonalLoop=1;jettySize=auto;html=1;exitX=0.5;exitY=1;exitDx=0;exitDy=0;entryX=0.5;entryY=0;entryDx=0;entryDy=0;" parent="1" source="ALNtkt206JN49C4pUcW7-79" target="ALNtkt206JN49C4pUcW7-81" edge="1">
          <mxGeometry relative="1" as="geometry" />
        </mxCell>
        <mxCell id="ALNtkt206JN49C4pUcW7-78" style="edgeStyle=orthogonalEdgeStyle;rounded=0;orthogonalLoop=1;jettySize=auto;html=1;exitX=0.5;exitY=1;exitDx=0;exitDy=0;entryX=0.5;entryY=0;entryDx=0;entryDy=0;" parent="1" source="ALNtkt206JN49C4pUcW7-79" target="ALNtkt206JN49C4pUcW7-82" edge="1">
          <mxGeometry relative="1" as="geometry" />
        </mxCell>
        <mxCell id="ALNtkt206JN49C4pUcW7-79" value="Plate #1" style="swimlane;" parent="1" vertex="1">
          <mxGeometry x="150" y="280" width="70" height="50" as="geometry" />
        </mxCell>
        <mxCell id="ALNtkt206JN49C4pUcW7-80" value="Plate #21" style="swimlane;" parent="1" vertex="1">
          <mxGeometry x="234" y="280" width="70" height="50" as="geometry" />
        </mxCell>
        <mxCell id="ALNtkt206JN49C4pUcW7-81" value="Section #1" style="swimlane;" parent="1" vertex="1">
          <mxGeometry x="150" y="400" width="70" height="50" as="geometry" />
        </mxCell>
        <mxCell id="ALNtkt206JN49C4pUcW7-82" value="Section #30" style="swimlane;" parent="1" vertex="1">
          <mxGeometry x="234" y="400" width="70" height="50" as="geometry" />
        </mxCell>
      </root>
    </mxGraphModel>
  </diagram>
</mxfile>
